PathFileType	4	(X/Y/Z)	 s05c0201.trc
DataRate	CameraRate	NumFrames	NumMarkers	Units	OrigDataRate	OrigDataStartFrame	OrigNumFrames
200	200	4	50	mm	200	1501	2000
Frame#	Time	racr			lacr			c7			jug			rlel			rdr			llel			ldr			s2			lic			ric			lasi			rasi			rpsi			lpsi			rgt			lgt			rth1			rth2			rth3			rth4			rlfc			rmfc			rsh1			rsh2			rsh3			rsh4			rlmal			rmmal			rcal			rtoe			rmt5			lth1			lth2			lth4			lth3			llfc			lmfc			lsh1			lsh2			lsh3			lsh4			llmal			lmmal			lcal			ltoe			lmt5			SBIKE			LBIKE			RBIKE			
		X1	Y1	Z1	X2	Y2	Z2	X3	Y3	Z3	X4	Y4	Z4	X5	Y5	Z5	X6	Y6	Z6	X7	Y7	Z7	X8	Y8	Z8	X9	Y9	Z9	X10	Y10	Z10	X11	Y11	Z11	X12	Y12	Z12	X13	Y13	Z13	X14	Y14	Z14	X15	Y15	Z15	X16	Y16	Z16	X17	Y17	Z17	X18	Y18	Z18	X19	Y19	Z19	X20	Y20	Z20	X21	Y21	Z21	X22	Y22	Z22	X23	Y23	Z23	X24	Y24	Z24	X25	Y25	Z25	X26	Y26	Z26	X27	Y27	Z27	X28	Y28	Z28	X29	Y29	Z29	X30	Y30	Z30	X31	Y31	Z31	X32	Y32	Z32	X33	Y33	Z33	X34	Y34	Z34	X35	Y35	Z35	X36	Y36	Z36	X37	Y37	Z37	X38	Y38	Z38	X39	Y39	Z39	X40	Y40	Z40	X41	Y41	Z41	X42	Y42	Z42	X43	Y43	Z43	X44	Y44	Z44	X45	Y45	Z45	X46	Y46	Z46	X47	Y47	Z47	X48	Y48	Z48	X49	Y49	Z49	X50	Y50	Z50	
1501	7.5050	457.470884	1299.767976	-149.749541	460.656709	1314.071437	-401.128328	429.189011	1387.484334	-273.227085	375.244194	1237.809611	-281.912824	477.910927	1087.489975	39.246148	664.528943	965.634811	-63.530236	456.193413	1070.717841	-577.144370	664.998925	968.240200	-448.474862	-139.034833	1173.808321	-256.155127	-4.425175	1205.851950	-407.642150	11.077526	1201.919389	-122.256123	48.997867	1153.798700	-378.045197	54.602875	1147.097766	-154.388871	-104.961438	1224.325767	-215.727363	-108.557387	1228.507708	-300.664559	-13.546817	1076.455328	-95.616734	-62.888995	1090.383236	-430.344818	94.797634	1026.157536	-85.597796	181.475219	1006.508382	-90.473633	245.004955	945.317134	-94.104011	196.723063	1037.590240	-105.061978	356.402142	853.290944	-124.010759	339.236090	846.420671	-233.671385	268.417074	789.640664	-95.549285	222.594224	714.910661	-107.206841	148.971538	671.310434	-108.873718	244.741327	695.940901	-132.622098	57.838718	577.047562	-112.480383	83.755149	589.170631	-193.621011	-15.162572	598.094391	-158.645800	180.474735	375.234000	-154.761261	92.747383	430.213603	-90.921090	30.833146	976.028926	-455.022391	103.972969	930.627440	-454.767364	130.819869	952.599966	-440.164348	142.942060	848.601957	-452.711884	225.645266	728.037581	-422.886164	208.565809	708.113988	-318.751769	203.581856	602.074625	-456.479334	225.890963	518.001760	-446.958866	203.549273	432.377399	-451.182166	255.741213	520.113643	-422.080362	210.456376	311.976415	-445.111774	218.497383	335.289518	-369.449039	150.688606	273.376252	-406.128623	443.294863	245.199363	-389.620367	339.884889	220.197481	-460.930547	-259.083113	898.197322	-281.537843	-43.583251	84.767116	-475.138552	-51.854505	80.100574	-77.616362	
1502	7.5100	457.046688	1298.617259	-148.308927	461.187421	1313.719711	-399.386320	429.408466	1386.788321	-271.352351	375.189674	1237.245085	-280.827978	476.657966	1085.867923	40.064524	664.573348	966.026388	-63.104597	456.221519	1071.266718	-576.392441	665.177575	968.502437	-448.354250	-137.977819	1173.737980	-258.823776	-2.632325	1205.565649	-409.661223	10.120855	1202.923619	-123.704193	50.486823	1153.343146	-379.192201	54.541932	1148.341972	-155.546636	-105.153296	1225.029902	-218.112607	-107.548759	1228.432741	-303.410591	-13.063462	1079.554054	-96.497313	-62.043791	1089.410403	-431.669947	95.338420	1031.190213	-86.614661	182.591450	1013.641781	-90.598124	247.574409	953.959039	-93.747952	197.163381	1045.008116	-105.387056	361.263932	864.170462	-123.277465	345.402559	857.263258	-230.778100	273.552318	800.229172	-95.089909	228.262897	725.135065	-106.787721	154.800835	681.094853	-108.813582	250.784020	706.092214	-131.768440	64.608721	585.859380	-112.789503	92.477044	597.589047	-193.210626	-8.444542	606.726120	-159.312688	187.372476	383.958618	-154.476473	99.456239	439.250906	-91.015609	28.931657	973.576043	-456.432920	100.526121	925.939781	-455.946487	128.335304	947.543938	-442.119591	137.693323	843.285778	-454.260015	217.607283	720.919506	-424.397653	200.921932	701.441555	-319.642128	196.324515	594.713035	-457.068346	219.011219	511.070194	-447.693904	196.831171	425.177719	-450.974572	248.533329	513.403369	-422.849666	204.792513	305.369906	-444.839935	213.594230	328.666814	-370.438894	145.037494	267.588069	-405.722696	437.335554	235.434491	-389.741319	333.518761	211.939713	-460.963410	-259.137459	898.228866	-281.674205	-43.578175	84.757518	-475.132414	-51.839302	80.133409	-77.605384	
1503	7.5150	456.650722	1297.638729	-146.785362	461.810843	1313.245640	-397.621018	429.598506	1386.186075	-269.522048	375.215956	1236.731521	-279.678704	475.525323	1084.098851	40.813355	664.705792	966.500063	-62.626752	456.274246	1071.708331	-575.566652	665.434196	968.757042	-448.189981	-136.976455	1173.862338	-261.685691	-0.626233	1205.292151	-411.593532	9.040784	1203.741070	-125.400880	51.954165	1152.727003	-380.285278	54.576113	1149.503561	-156.713443	-105.583633	1225.777462	-221.063003	-106.457582	1228.277353	-306.277440	-12.783350	1082.482331	-97.354809	-61.190190	1088.360828	-432.934396	95.541343	1036.206879	-87.816341	183.417648	1020.671533	-90.717950	250.371066	961.928325	-93.788187	197.293224	1052.201642	-105.827558	365.655261	874.903244	-122.770438	350.777953	868.151632	-229.727027	278.523146	810.688449	-94.674555	233.858839	735.244040	-106.257559	160.854799	690.719161	-108.705654	256.628634	716.073158	-130.960173	71.491208	594.213463	-112.928406	99.076248	605.953938	-193.541241	-1.917275	614.639032	-159.041758	195.477921	392.695230	-154.159313	106.917202	447.334779	-91.204938	27.040046	971.218591	-457.928373	97.412872	921.775680	-457.949965	125.826924	942.669477	-444.128895	132.516549	838.085918	-456.199348	209.640273	713.996129	-425.888496	193.321890	695.133290	-321.529235	188.742028	588.043293	-458.214667	211.793755	504.418099	-448.345997	189.713658	418.338122	-450.533854	241.396622	506.950573	-423.581410	198.735871	298.997885	-444.727549	208.418409	322.516943	-371.325074	138.903218	262.129409	-405.364840	430.840489	226.214653	-389.925002	326.620728	204.013804	-460.960620	-258.999872	898.246011	-281.874617	-43.584619	84.765869	-475.152957	-51.849582	80.141590	-77.627155	
1504	7.5200	456.241812	1296.574594	-145.159972	462.506860	1312.752374	-395.896038	429.836918	1385.483133	-267.636835	375.289381	1236.120631	-278.468892	474.405138	1082.396855	41.755235	664.716329	966.734157	-62.420544	456.391771	1072.132781	-574.715887	665.772275	969.041671	-447.935419	-136.553014	1173.756555	-264.286780	1.259878	1204.334134	-412.678240	7.917003	1204.556242	-127.019584	53.430126	1151.914919	-381.341974	54.667652	1150.679711	-157.845484	-105.581807	1226.236135	-222.624689	-105.622834	1228.155224	-308.935579	-12.694056	1085.281007	-98.283698	-60.330927	1087.194665	-434.143952	95.616496	1040.906845	-88.695991	183.958173	1027.516347	-90.880530	252.124326	970.291322	-92.977179	197.140138	1059.139833	-106.454021	369.869136	885.647068	-122.266161	355.823889	878.039012	-231.642662	283.345481	820.861618	-94.350224	239.417155	745.013466	-105.737761	166.908547	699.845834	-108.618481	262.156727	726.062653	-130.291021	78.463825	602.024053	-112.959312	105.919683	614.325550	-193.760385	5.186909	621.969095	-159.110973	203.582714	401.510022	-153.590289	114.728636	455.065230	-91.302236	25.140866	969.175623	-459.484669	94.342076	917.760978	-460.079453	123.353300	937.975859	-446.375426	127.316870	833.214619	-458.502667	201.687896	707.604632	-427.321809	186.166597	689.276627	-322.699049	180.790754	581.770368	-459.218592	204.180929	498.283845	-449.112386	182.266703	412.059930	-450.371584	233.952097	501.024585	-424.528848	192.129664	293.132933	-444.662818	202.974236	316.855807	-372.091286	132.365755	257.002623	-405.163620	423.778530	217.461411	-390.165506	319.227030	196.593919	-461.078335	-258.947629	898.252780	-281.884659	-43.581462	84.766390	-475.167714	-51.861301	80.174318	-77.637569	
